<mxfile host="65bd71144e">
    <diagram id="mbkKpJFLCK-diL2DMaxm" name="ページ1">
        <mxGraphModel dx="455" dy="222" grid="1" gridSize="10" guides="1" tooltips="1" connect="1" arrows="1" fold="1" page="1" pageScale="1" pageWidth="827" pageHeight="1169" math="0" shadow="0">
            <root>
                <mxCell id="0"/>
                <mxCell id="1" parent="0"/>
                <mxCell id="4" value="" style="shape=image;verticalLabelPosition=bottom;labelBackgroundColor=default;verticalAlign=top;aspect=fixed;imageAspect=0;image=data:image/png,iVBORw0KGgoAAAANSUhEUgAAARsAAADRCAIAAABzS4EQAAAAAXNSR0IArs4c6QAAIABJREFUeAHtXQd7E8fW/v6GDKYllCSEQG4aCWkk4ebCTbkJIb0XcpObBLlQjCnGgCm2qcZUg0MxJfRqQpVkyU3uBffeq9wlS9ovsEQsq93RzGok7eLD4+dhNDs7c+Y98+7Ozpxz5v8Y+AcIAAL0EPg/elVBTYAAIMAAo2AQAAI0EQBG0UQT6gIEgFEwBgABmggAo2iiCXUBAsAoGAOAAE0EgFE00YS6AAFgFIwBQIAmAsAommhCXYAAMArGACBAEwFgFE00oS5AABgFYwAQoIkAMIommlAXIACMgjEACNBEABhFE02oCxAARsEYAARoIgCMookm1AUIAKNgDAACNBEARtFEE+oCBIBRMAYAAZoIAKNoogl1AQLAKBgDgABNBIBRNNGEugABYBSMAUCAJgLAKJpoQl2AADAKxgAgQBMBYBRNNKEuQEAWjLLa7BdzWkOOl87eljMtIm3iEsPo+Tr/QK2fWjM8UDsyWPfIYv2z4amzNmb+cvDWvqT6jt5B0BwgIE8EZMGokOOlKrUG/+8fYSl2uzzxBKmGOgKyYNTnu/Lw6cSWHLQBpYb62JVn/4FR8tQLSKVUBIBRStUcyC1PBIBR8tQLSKVUBIBRStUcyC1PBIBRPtZLv8VmrOw6aWzeo6nbcqU6OrEqOrFq85XqXTdrj6Y1aos7WrstPhYRmidBABhFghbtsqvOVYyer3O5zvnzgVu0W4b6PIUAMMpTyOLU64e3C/doqB6nNigjBwSAUb7Ugsu3E1sAGOVLJRG2DYwiBIxqcWAUVThlURkwypdqAEb5En3PtA2M8gyueLUCo/BwUlIpYJQvtYXJqAkhsDLhSzURtQ2MIoKLcmFMRo2er6PcMFTnMQSAUfegbe4yXy9sP2BoWHexct6hom/3Fny2M292TPZbm7Le25r96c7c3w4VrTlfcSqjuaqt/95tJKmjaY3brtU4/jAZ5afWOG7hJrJrukkaZ6w2e3JZZ+Slqi92570YkT4hRO8fpPUP0o5dmPRseOo7m7OCjhTHJ9WXt/RhVjtos6dXdu1Lqg8/Uz43vvD9mOxZGzOnrze+vCb99UjjzA2Z723N/nZvQfDR4rUXKhOSG/NqXQh8NK3xm7j825WsM74Ykf7SmvRX1qZPX2d8IzJj5obM/2zJ/nh77nd7CwIO367weHpTr9mKKarXig11RvVbbKczm+fGFz69IgVzfLPFpkWkbfqzmsj38VphO1ETLgs/tQLXT6y12xJxvmLysmSXdbIFXl2bvutmrcvx+mJEOmaFjmLrLlaKDe6GzoHhgVpHSZcJ/0Ct5EebmAzu5w9pRq27WDl2YZJLzSEKjA/R70uqx1RD+NlyRFXSLpU1u3ifDNrsGy9XPyypm48vMRw0NCB6F3a6jFTsqStTxSrceLmaqLZfDsrRlGToMurGLWpvjHmHimwYTsU/7CsgGjE4ha8VtosNUIZhKlv734jMwKkHUebzXXndA8KTq4bOgRFBBG8VtpX8uh5nme125rmVqQgxeJeGBWhKmnqd6/F5ztBl1LJTxM9XnlK5P9ecr3Cpy7c3Z3FvoZI+nt4k1m5KuenRUD2VVl5bb2zvETbYDTxSTNrE2gsCEz9tcQdRPT/sKxDruG/zhy6jfjl4i0iF6MLDA7XplV1oXb66lvirA92oSq0Rm5Ull3U+tMCtCS2v6TejM/otNucOlrf0DQsgiBGiUmteWpPuXM9P+8nU4XKRw7kJ7+QMXUaFniALF8MbYc4/34jMQOvs+dVpzne5mbNfL/CdU9rUN24RnbcTV7x5CUWCHZwbX8gthpMubrxvwmbqGxwV7NoG31Hz57vyBCWRQ+bQZVRCSqNDQ7QS6NfUy2vov6MSUhp5w6jXbJ0WQZ+6LEQ3iwQ+2/Jqu0kB3HC5iit2nLaOqAY0ztyavZ8euoxqMJlJpysutf7bIeGnOKvXWRszXdZAWuBsVgtv0Cym/e7lijQjSvg9/OnOXG4xl+nXI41csYmWTz7YlsO9V27pocsohmE+2UE2DlwOlCnLkxEK9sRaX2q5idtiXm039ccEr9e8FtnWk8s6ecVc/qxovbtLnkv4itOVdHC7LLf0kGbUlYI2l4onLdBoMovpOPZ6DWlt6PLDAjSmvvvC60qIfIhuwvnq4hOlgh18h3AlM+ZaDVsPUfzTtzZlCbYun8whzSiGYdiZ2IQQ/YexOctPlSWkNBpKO6vb+rsHrDa7vd9iK2/pi7lWg//gT8xrFdNuS7flKULLDOcBzc35af99W5zFjb3cqx5KT19334TN0dmrBWT7ezM3ZDIMM2CxTQghWES5WiDwIeeQQQ6Joc6oqrb+suY+l9uz+PPDOG0dvl6JBr3LDU3SHbYZURkLjpUEHikmWjLxD9JaRQL6vh5pxO+Rn1pT1zFwwtiEf4vYVxw+4F4oOdQZhQlx+BlcA6JNf1Zj1skwDP5gUqldmwhMWY5rtucfpD2Wdm9r2GqzE+0lNHcJz2zPZLUQ9WjXzdrZ23LwbzmfzV+GwYfaayWBUVhQR16qxFR8+JlyrBrvFMKsky2GfkcRLWGvPMsXss9sw9/CqmkfEOyjzW5/gWTP7YXVaZixa1Rqzctr0l1OJQSl8nImMIrpM9u0xR0x12r+u79wRlTG1JWpE5cYJJirseN+4bESfBVSZNSum7X4taVX3LdCyAo8cwPu4j5vOYTb34Rk+rt8bL8Q9lZcAXyeHtKMSq/sCjpSPG4RTWud+Ud9w6hfSYyqyoUs1t/dko3DSf9ALeJdYbHanwwj84vBaXTqylSxjzefU4gnwBBlVGu35cffiW1ncHTvK0b9M4rAxtzZp7DXbMVcc5u8DLXnxjAM0dsSB1KE+SJvNMvh51BkVGq56bFQA6YuSYv5ilETlxD0iMsoq81e1tz3dVw+Zk+/3evC6LvPbKML7z/CUixWxRwXNuQYlV/XM55kAwRznDmK+YRRgzY7/ie+Q1Rpib061x6WpL6DaEn2aAg2JHz+mhpajOoZsOJ7hqPVLHbVJ4wy9Q+KyUM33z9QK7bQxx3Kpr5BWl+nk5YaBL1IuM3JKj20GIW/CC55IPqEUU1dZskCE90YcLgYc/iuOldBVLNY4Zird42VMNv1ebEhxKjOvkFp4RbElC2Y7xNGNXuFUWMW6GpFdqKcx/FySi7SIceFzQidW5RJzhBi1OnMZkEOCGb6qTVf7s5ff7EyPqk+Pqke3wLVJ4zq6rcK9oJi5vBA7eW8NsxR29JtGbOAwIMQIad/kNZhpY7Zum+LDSFGqQ8XITTHveQfqOW5DOBPF33CKKvNjm/Ly+0pZnpEkNbZtRExcPGNtnAE+O/+QkRbcrs0hBiF79m66A/+Lq3MGcUwDL5RH84g5paZvt4oGL1IbCi39VjohrjwU2tyXYXOFBPG+/lKZRRX5WJp/0DtCo6VHb7d2gnjPStSViXyZ9RbmygHWvJTa2Zvyzmd2Uy6F0RrTYKr1o+353qfG9JafJAZxaqEDRIyaLNzNYRO37jFd8KRP6MW/VGC7hT36ogg7chgneNvVLBuQoj+mfDU19YbP4zNCT9Tfjqzua5D2BwWPc46egfxg4oSOSny5uFoMXx49cFn1MbLt90r2nos3CGFTsc7hYnFZ9RzK1O/21vw3d6Cnw/cQngfsipHi8G7irY9P5JKYKJaUC8Qg5LKKFxzHnfRfMwCHVFksn9F3/ZQlP+/B59RX+3JZxime4BgNezN6AxejNj1F3G9Obg08FNr0DFfuYVdptGMajCZ8c0mzjjFe0GMVIvVXtrkIhY0e3snycYuu95A9Jo6B/5RCD1xL+GvTbscds4FHGH0iD6X58YXNtyJGDFos580Nks2XELHRXCWFpGDZhTDMPjuGO/HZPMeGVx1ONJNXeZNf1ZPWZ48IUSPc2YC0XPnSsHttfidJE4o0yLS5G+B/uC/o54Nvxu6nsg6mx3Zk5Ya3NwU9lNrOu8PruIYr9R9ePfrGxCE5F36YndeodDcr7Xboi3uiE6smrkhk/vSW3XORRhqU/8g/nNn4hLD4B3X+tr2AZ5g6J8HkCcbcLH1VfrBZ9T4vw8IXHKSZqBztOK5V9OE3PtYfXOLuUy7fEf1mq2PLCaIgqJSayYvS357c9ac2Jx/b8p6ZW06woD9oQVJ6NdUVGKVyy44CnADKv0rGtfTkRVY5mZ+Dz6jhgVo2OErIaacYwS4k0BERyCq1iWj/nrp7bhB4MlL1PpfhXfcqBV78HcP4LpXsY0aOTHit14lC7q2Vd6Wfg8+o0YG3z1y025niIL+kA44sfKnMprFBqLYLYL5OIyyWO2veOC8AlaeWRtFV9s2/Ulw9NPzq9O4gJS39An2VyxzfIgeMZHm1uyT9IPPqElLDQ5kiUz7xDRKmv9nvqg5HFFVOIxiGCa/rmckSVR+fBmGB2oFZ1w9A1aiY3UiL90X9JxhmOnrCMKSqdQaovA4Du17J/HgM2paxH1PxDmxBOGs8EcboiTvHAquXhF3OV/CZBTDMCeNzdxFBeeqJOcIGq2STtu4HsQsGpGXCL7BVGrNqGBdvaQNaC74HkrLglEeCvnAjhveXKXBZJ60lMCBXPLgY28cH6JHLPgSVY7PKIZh4rR1niAVu6PAHYt9ZhtiPcO5gzx1sFUV1vc4l0Tn4HtqcaX1QloWjCJ9yKGx5l0NOsJ3ksuq7nZzTfzbvQVTV2GdKPMr8qxYnqjon0SMYt9UdKd/gkfobrtGtq4gFnOXKNCfSq0ZHqglBcQLdGIYRhaMaugcGD2fjjuN86DkBk91YGqs7CKa+nOr/WpPvnnQpivp8Mc4ghZ90hG3WpdpCQMor7abdKSKifFYqMFQ2ukAkE30W2xEL3z/QG1rt/Dpo6vJfX6/ibttDSO3f7JgFMMw8Un1Yrp0J398iL5H5FTmmvYB0oNxRwRpoxOrHNYGl/Pa0O+6T3e6sJgm6poERrGh+iMvVbnj/zdxiWHj5WpT/32HgLDjeLeG7CQ1xNmE2TXEx7qp1Jqs6m5glCgC2uKO/x24NSc254NtdP4+25mnLUadNWS3M4dTG3Hmb6Pn69SHi5w/qctb+j4Qidw9ZXmySx/yFWfK34/JnhaRNmmpYezCpBFBWofj4LCA29/fj4UaXlidNic2JyqxitSrggt0e48lKrHqmXCCw9gfWpD0dVx+Qkpjn1ng+F228kaT+aChIex02dz4wjmxOf/8OyLvuEX6MQt0/kFaP7XGT60ZGaybuMTwr+jMpBL+W44r5O/6+o+25z4TnvrwwqThgbePoPcP1D68MOmJpcnPr057Mzrjg2053+8rCD5avO5i5QFDQ2q5iTW84Fbi87Rc3lE+BMJuZ5JKOsNOl72zOeuJpckjgrTD7yjy6RUp723NDj1RejarRexFx4qdV9u96lzFu1uyJy9LHhWse2Sxfm58IU7MIO/3OrOqK+Zazff7Cl5bb3w0VD8yWDc8UDtuUdLkZcnTItL+syV7/tGS3Zo6bXHHgNA51t4XWHEtAqMUpzIQWNYIAKNkrR4QTnEIAKMUpzIQWNYIAKNkrR4QTnEIAKMUpzIQWNYIAKNkrR4QTnEIAKMUpzIQWNYIAKNkrR4QTnEIAKMUpzIQWNYIAKNkrR4QTnEIAKMUpzIQWNYIAKNkrR4QTnEIAKMUpzIQWNYIAKNkrR4QTnEIAKMUpzIQWNYIAKNkrR4QTnEIAKMUpzIQWNYIAKNkrR4QTnEIAKMUpzIQWNYIAKNkrR4QTnEIAKMUpzIQWNYIAKNkrR4QTnEIAKMUpzIQWNYIAKNkrR4QTnEIAKMUpzIQWNYIAKNkrR4QTnEIAKMUpzIQWNYIAKNkrR4QTnEIAKMUpzIQWNYIAKNkrR4QTnEIAKMUpzIQWNYIAKNkrR4QTnEIAKMUpzIQWNYIAKNkrR4QTnEIAKMUpzIQWNYIAKNkrR4QTnEIAKO8pLL2HsvRtMbFJ0o/2ZH72nrjk2Ep40PuHiztp9b4B909FP2lNenvbsn+fl/B4hOlO27UXiloM/UNuiOiqX/wQk5rxPmKH/YVvL056/nVaU8sTX7473Pp/dSaEUHacYv0T4alTF9vnL0t56f9t8JOl8Vp6/SlnZiHW3f0Dv52qGhCiF6l1mD++d9uNOnxJYYXI9Jnb8v55eCt6MSqxLzW2vYBdzorh3uBUd7QgqG0c8wCHeZo4xUbHqj9cnd+g8ksQdC1FypHBUtsV6XWPLwwaa+uHt2u1WafuSGTJ7M7P59bmbrwWMnVgnarzY5uWp5XgVHe0Mv6i5XuDDKVWvNNXD6poMbKLjcbVak1r603otu9lNvqfiuCNUxZnrzuYmVbjwUtgNyuAqO8oZHwM+WCgwY/0z9I29FLNv1bedbdRlVqzdRVaWiAwk6X4fdCQsmxC5PWXazsM9vQYsjnKjDKG7oIOV4qYTDxbvld72ICxuvJixHpvBok/HxiaTKvWt7PeQlFEqolvWXqytSUchOvaXn+BEZ5Qy8Bh4tJx5Bz+Xe3ZOPLWtbc51yDhJyxC5PQjf52yBuMUqk1wwI0sddr0MLI4Sowyhta+Gn/LQmjmXeLn1pTg70UFnO1hne7tJ/DAjRogLzGKFb+RX+UoOXx+VUvMarfYjNWdp00Nu/R1G25Uh2dWBWdWLX5SvWum7VH0xq1xR2t3Qr7ACXS3Ddx+dIGNO+uLVeqMdt9a1MW717JP/stqG8YLzNKpdasPFuOCYJPinmDUavOVYye73oN9+cDt3wCgRca/WRHruQBzb3x1bXpONI2d5mHBeBuDXHrF0yjV9u8zyiVWnPQ0ICDg0/KeINRfngbf4+G6n0CgRcafW9rtuBglZCZX9fjUuCDhgYJNYvdgp5q+oRRDy1IKm/pc4mDTwp4g1FiquLlP8CMorgHGn7G9Zzn8115PGzd+XmroRcxNH3CKJVa8x+SdRqE/NQvAaOoQypQ4fR1RnfGNPfeJ8NSbHaUMUGv2eqOnQS3LTadUdUl0KW/s3zFKJVac7Wg/W8pZPQ/MMobypi6Ks15pErOSSrpRAh9PrtFcs2CN+pKOhDN+ZBR/4zKQAjmq0vAKG8gP2V5suBglZYZeKQYIfSvByms1HMFu5zXhmjOh4xSqTXo9ydCbM9dkhGjJoQ8sCsTjywmsMvmjmbB9PgQvXlQeEXbarM/GkqzLZVacyqjGTH+fMuo4KOohwtCbM9dkhGjRs/Xea6fvq0ZZ/NAkDximeezWwR7lFTSKXaL5PxDyailalJGfbw99+u4/Pe2Zr+8Jn14oFayVOyNjyzWo78qBVHyaKZHGHU0rXHbtRrHHyZqfmqN4xZuIrummxSCpi7zueyW6MSqeQlFX+3JnxOb89H23G/i8oOPFm+9WuO+0xGpPJj7B5hAqdSab/cWCMqw9CR9u9VdN2sF22IzSRmVV3tPm71mq7a4Y258ob8b1JLbxI8+o64VtuOPDJyST61IQS5u3VN3c5d585Xq6etdL6wNC9C8szlrX1J9r9l6737PpAYsNpxuEpUZGawT9ER8NjyVqB6cwpv+RBlquMMoB975dT0vrJa4eLPxMko8RxNeS9BnVDgNJwKepsuaXWznmfoGQ0+USlg1fjRUv/VqjcWKWo92UxmdfYO87lD56TwZy6/roVIzr5KI8xUIBKgwimGYzr7BqSulPA6+2J2HEM/7l+gz6od9BTyVuP/zWiFq5+FyftukpQZ3WnlpTTqOLYI09TSYzO7IJnbv7Bi+KXp0YpVYYXfyQ0+UIjpOi1EMw1zOb5Mg59MrUhDief8SfUa9vZmajaYD3+PpTWLQRCdWUflKGbNAdzZL+HNfrGnM/IrWfkdHKCaGBWgaOu+LyjAjKoNi/Y6qAg6j1tMoMspuZ56T9Jrq6vf41B1T1wzD0GfUq2spOLo51MkmxCwj3feN5TY0PFB7wihKXXxMeSUL6z0yGVPdWchxtFXfMcDtC8X0j78XOlpxTlBkFMMw0lZWCupd2zo6S+6hHPqMel7qJyZiEOzXCyzg7rxZi7hF2iX/QK2+FGWRIEENGVVk8R7wX7ncIBBx2jppXXZ51+e7UB8qdBl1OrPZpTzOBW7cQn0USFCZO7fQZ9TLa+i/oxJSGnmdTCk3ub+b4awblVozcYmhhaqzlr6UbI9o5oZM/yDcjRqHGeuc2BzB7jhnPkO4Huj8wcbVBV1GFTX2OgvsMudIKn94cCX0cpo+o2ZtpBlrikWT94VjHrRNi5C42OpSPSq1Zm48ap5DqiHS7YSv9uR/sA2XHqvP3V6IM/UPYpJw+jrjF7vJLNNnbshEdJkuo3rNVhwF8crsRO6YIYT3xCX6jPLEWl/q/VE7tl2j4/LNUwz3J69Fd6C/kEMWf+vH3wv3aHCncE/f2aw7acSdLEWcryB10X95DcrNkS6jGIaRYF+C79rsjh4x76XPqNjrlIf7sAANdzezz2x7fIlba+Vc5oilP4zNwUTQZbETxiaxVgTz5yUU1bQTLDOklJvmxhcKVuWcmV7ZteBYiXM+Ige9PE2dUU8sJbYqjrxU6VILXitAn1Et3ZanVqQgNER66af993nLH05tJK1BWnmX28qYSjqUTOZRywYneQ3D8oPtl/pw0bhFSTh9fHyJwWa3ky6QPhZqQPSUOqMkDB70HjRCeE9cos8oZylxlO0oU9KE8hhlGIaih7mjUcEELT2RrsItP1XGMAx+GFr8kBLzEooYhiHdCB4VjLJgps4oCVtSkZeqnEedr3IUxihT36CHlvicSTV9nYsAxZg6iyH86ltzx+onu6bbWSQ3cy7ktDIMs4t81wFh302dUf8II57gPODfUc7jjGgcoN9R5wgdVN/alKUt7ugesJr6B68WtL8e6dqIlittU5eU+P08BKIIjYMcpp9Pko8trvC89MhgXc/AbduChGTiaXP3nRt5/WJ/UmfURPKP5B03UNbxgmJ7LlNh7ygiM9x3NmfxTGD7LTYiUl3OR7mvYmpl1bkK3uBG/9x+/e74WPQH2RICutpPduSyAp/JInabbxQ/GYQ6o0Zg78U5+utsNIypGk8UUxijPt5OEPhO0PiVaL/V8bpwB/olhD5L+5Luxje/TtUvxnFujYRqEaG86DLKJMlOH+23747uJNyrMEbhh0B5PVL0K+hp7KVI9lNeAqzcW4KPkgU9P/y3BYDFasdcxHM8rREJx2FnaRUmRDHBS4LPJraPdBklzSFFVk6HCmMU/rlmCB+E/x3AjW3y8fa7MyUuQ0jTvxCGUjmdeS+uA63tcq4FYAG55S5iv5suo05l4G5Vc5lf13GfDT6pguiWVxKj+swEzrBx2joxpPCXCqjEr/qe0GEsMe/2ihz773g62e4wd5xx02sv3NsDrW4j9i5BmKLSZdQK8oO2xizQYbp4/w2qZ/9XEqPaeyzcUYJOI/wy8DeI0AY4mJohjfB6s+ieJXVn36A7MRgcEHHnRR29xD7F7LK7YH/pMkqCixdiei8osKczlcSoRhJnWLFoQUTLx8+tTHVfAbOxzV5ZAiSX3edOMjvG3Zjpk5YauE9xi9XuYBpm4liaqNsYRUZJc838736aZs3uq1tJjGrtJnhHnTTe+xrhwbRXV485kqZFuDgzk1ez4M9/Ex48k1V9L1qQtA1ZXu+cnXBHEh53Hf/38qNzBykyKvSElJMgd2tEp/fO0nohR0mM6h4gMPV3rEE7g7jxcjVvzIn9pDKjINoBU6k1DpcnVnIJnz287lzKvfdhxtZJuouKOFyQFqMK63sk7ESp1JpcTrgyZ117P0dJjLLbGUwvIJVaw1rHCQI6D/ugy/edoqMIVojOJHXlqmzt51XozkEEo4J1zsdCk9rOIQznqDCq0WTG39LgPi/GLdJbbR6MY8VTBM5PJTGKYRh8w2SEnxz+phaVQ+LwZWbHirOBwtoLldxhRJT+bKeATzu+YTvbFuKIHVJGOS/E60s7SRnuQOB/8jvFT2GMencL7mf6sACNoDtGJknUB9ZDFufJhChDOsXiOoOx1RLJ7BhtbELwEwgfRrYSxOm3pIxada6iZ8Da1W8tber7I73p8115+HE1eF1TqTWyspZglaUwRoUcJ/h4/XRnLs9o2mK1EwU/QwfRR7CIe+nhhVjOS47h4nxKgN3OTF5G7IfHVlgvtPv52U4yx/hfD97nosbtHSmjHN10P/FoqOiJClwJvZxWGKNI7aY/35XHWtDY7Ux2TTfpSrTgW45UQ0TuJ35q4bPZ5x+VYjX7RqTwCUv4Pr/suP9OJMw6wzA+ZBR325pUKZ4rrzBG1ZK4izuegiODdRLWkZ4MoxCslHTzZ8wCYfe+qwVSosmLuYsHHSEzNXTYrTsPRF8xamSwjoqvjXOP3MxRGKMYhnnFAxE2HdzjJoKQB59h4m7qJzNQeGSx8CFa5kEb6ezxr8NqxY41WX6K7AiPd8UPvfUVo8LPuj6PGFNHdIspj1Fbr1KODMNlETfNs12QhntTF1nQ8ynLk8Ua+m4vWUD5ycuSuaYS3GojL5EtHorNHn0165u8LBnhBMntqffTymNUU5eZdMufyxPM9IsRqJBa+HqqIjRLnbpK1ErjWBqZ1Szi/L/t18nC8b6wWlQqn7yjnPes8TXi6ZLKYxTDMEQrfpgU4hVDnF1ApBLSIKmI4BYdvWQxNhAOyAcMZOGZEG9O7zNq2Z3INkRa8GZhRTKqqcs8PoTyabNcRs2IyuAtu0tWCWkAFsTGNFEcqNHzdf0W4bN6GYYhdUMat0j46877s77PdubxIh1IVo2HblQkoxiGOUj4lOUSBp32D9RSNBVLKSdzmH1vK/9UKK7id9zAna2hzym7UkB2UpN/oJYrBjftzXfUB9tyBsQfE1ypfJhWKqMYhvkZ2xUXTSHeVbq2zDeLyFa9EevUDMNUYh9FdcAgcJqJY5wll5EdbqBSa8TeDF5j1LyEIue9b0eP5JNQMKMGLDbq0TBDjqPO85OgtsQ8sqDn38Tlo1v7qv7AAAADTElEQVTB2TzwU2saxKMXMQyTV0scDLCjd1BQMC8wauzCJEFbKkF5fJ6pYEYxDNNntn2IfcoL713k/HPxiVKx5WbJeiI9EIkXktq53dUYscrejBY2lXDUhv+uc6AkFsthIWEUdUeFOIm/Hg1z4wvRTwdHp2SSUDajGIax2uxhp8vcsbZUqTWjgnW/6+/G9KKrGFJGLThWghbAWOn6fLeoRBdRi4l8N9mhLxaZNCGFOJ4mDpdGz9fNSygqbnQRshuNlU+uKp5RLGqp5abp2KH3eRr9aHtuuauz6CXrpnvA+uXufEzCvxGZITZwHQLY7S5cWkYEaXk+i457HQmrzY7v0qJSa2ZtzBTbUTUP2mZuoHZi2JTlyXPjC09nNrPhbx0CKyjhDUatOFP+fkz2tIi0SUsNYxcmjQjSOoLfDwu4/X54LNTwwuq0ObE5UYlVYl/ALjH961zkS7mtH8bmYFqmjp6v+2FfQXqFyWXN7heoaus/ktoYdrrs14O3vtyd/+6W7BlRGbM2Zn66M1d9uCgqsepURjM+q019gxdzWrdfr11zvmL5qbKlJ8uWnyqLOF8Re73mXHZLM15k6QGL7UJO6+pzFT/+XjgnNmfWxswZURkzojLe2pT1YWzOX2fSLTtVtu1azfnsluo2vgckD5ABi21fUv3c+MLZ23Le25qN8/d+TPbH23O/jsv/+cCtsNNlezR1l/PaeAd181pRyk9vMMrLWLR0W04Ymxb9UfJ+TPbTK1LGLkzyD9T6B2nHLdI/vzrto+25K86UX8ptFXvoellaaO4BQ+ABZNQDpiHojrIQAEYpS18grdwRAEbJXUMgn7IQAEYpS18grdwRAEbJXUMgn7IQAEYpS18grdwRAEbJXUMgn7IQAEYpS18grdwRAEbJXUMgn7IQAEYpS18grdwRAEbJXUMgn7IQAEYpS18grdwRAEbJXUMgn7IQAEYpS18grdwRAEbJXUMgn7IQAEYpS18grdwRAEbJXUMgn7IQAEYpS18grdwRAEbJXUMgn7IQAEYpS18grdwRAEbJXUMgn7IQAEYpS18grdwRAEbJXUMgn7IQAEYpS18grdwRAEbJXUMgn7IQAEYpS18grdwRAEbJXUMgn7IQ+H+iTLk3pNGq2AAAAABJRU5ErkJggg==;" vertex="1" parent="1">
                    <mxGeometry x="220" y="520" width="283" height="209" as="geometry"/>
                </mxCell>
            </root>
        </mxGraphModel>
    </diagram>
</mxfile>